#!OML:ASF I:\salsa\salsa 7_09\Patient 1\Session 1\dancermale.ASF
:FULLY-SPECIFIED
:DEGREES
1373
root -0.462367 17.5313 4.29488 -347.562 104.286 -356.214
lowerback -6.42842 5.041 4.55865
upperback -2.98016 6.56704 -2.45157
thorax 1.29554 3.29388 -4.54991
lowerneck -5.71301 -10.1941 -2.12384
upperneck 9.92243 -13.7539 2.852
head 4.71197 -6.68125 0.488813
rclavicle -9.34505e-014 2.8625e-014
rhumerus 60.0864 -18.674 -95.3031
rradius 58.1505
rwrist -26.2949
rhand 132.76 165.093
rfingers 7.12502
rthumb -19.9383 -43.9039
lclavicle -9.34505e-014 2.8625e-014
lhumerus -30.4908 -16.9329 93.7304
lradius 73.0183
lwrist 53.3404
lhand -19.2204 43.4027
lfingers 7.12502
lthumb 7.0924 433.264
rfemur -12.6121 -3.08439 25.1854
rtibia 14.9922
rfoot -13.3846 -20.6015
rtoes 19.3524
lfemur -25.5019 -2.09363 -19.3286
ltibia 49.1526
lfoot -8.89045 3.19318
ltoes 9.87798
1374
root -0.504633 17.5271 4.25424 -347.308 104.865 -356.032
lowerback -6.62742 5.16445 4.87559
upperback -2.97677 6.70469 -2.42653
thorax 1.45624 3.36592 -4.66638
lowerneck -5.70386 -10.4878 -2.30528
upperneck 9.87383 -14.1457 2.98019
head 4.73227 -6.87483 0.533358
rclavicle -2.39101e-014 1.19271e-015
rhumerus 61.2804 -18.5155 -95.2329
rradius 56.6582
rwrist -24.5053
rhand 133.191 165.727
rfingers 7.12502
rthumb -19.5239 -43.313
lclavicle -2.39101e-014 1.19271e-015
lhumerus -30.7397 -17.6577 94.1983
lradius 73.4521
lwrist 53.4878
lhand -19.1141 43.5208
lfingers 7.12502
lthumb 7.19506 433.379
rfemur -12.7915 -3.24349 25.1111
rtibia 14.9988
rfoot -13.5017 -20.9511
rtoes 19.9594
lfemur -23.3754 -1.89827 -19.3571
ltibia 45.6577
lfoot -11.5175 4.14871
ltoes 1.86846
1375
root -0.553082 17.5195 4.21049 -347.353 105.417 -356.137
lowerback -6.83079 5.2707 5.1579
upperback -2.93731 6.81891 -2.42174
thorax 1.65383 3.42807 -4.78362
lowerneck -5.64359 -10.7787 -2.45875
upperneck 9.77945 -14.5329 3.0872
head 4.72211 -7.06796 0.571091
rclavicle -7.9927e-014 6.75868e-015
rhumerus 62.3466 -18.3124 -94.2954
rradius 55.0455
rwrist -23.2195
rhand 133.431 166.378
rfingers 7.12502
rthumb -19.2933 -42.6846
lclavicle -7.9927e-014 6.75868e-015
lhumerus -30.9672 -18.3434 94.7289
lradius 73.9134
lwrist 53.6585
lhand -19.3148 43.9278
lfingers 7.12502
lthumb 7.00131 433.792
rfemur -13.2342 -3.41634 24.9414
rtibia 15.4951
rfoot -13.7495 -21.2364
rtoes 20.2934
lfemur -21.3236 -1.7592 -19.4927
ltibia 42.1623
lfoot -13.3693 5.0857
ltoes -4.15616
1376
root -0.609078 17.5119 4.16568 -347.868 105.973 -356.656
lowerback -6.8923 5.34533 5.32389
upperback -2.90842 6.90444 -2.42506
thorax 1.74739 3.47356 -4.86151
lowerneck -5.55619 -11.0483 -2.57506
upperneck 9.72984 -14.8921 3.15893
head 4.71631 -7.24686 0.593644
rclavicle 3.84897e-014 3.97569e-015
rhumerus 63.4555 -18.0877 -95.0679
rradius 53.4092
rwrist -20.2676
rhand 134.04 167.651
rfingers 7.12502
rthumb -18.7073 -41.4692
lclavicle 3.84897e-014 3.97569e-015
lhumerus -31.2891 -18.9595 95.3795
lradius 74.3032
lwrist 53.7271
lhand -19.4401 44.1962
lfingers 7.12502
lthumb 6.88034 434.064
rfemur -13.804 -3.45988 24.6181
rtibia 16.3174
rfoot -13.9203 -21.6143
rtoes 20.0698
lfemur -19.4447 -1.76592 -19.7533
ltibia 38.765
lfoot -14.7977 5.71444
ltoes -7.39926
1377
root -0.674769 17.5087 4.12489 -348.774 106.636 -357.597
lowerback -6.8005 5.35535 5.33175
upperback -2.93715 6.92468 -2.46002
thorax 1.67449 3.48197 -4.91017
lowerneck -5.45617 -11.2831 -2.49214
upperneck 9.65812 -15.1998 3.02439
head 4.65859 -7.40488 0.524867
rclavicle -4.98289e-014 -6.36111e-015
rhumerus 64.3275 -17.9024 -94.8613
rradius 51.991
rwrist -18.2927
rhand 134.296 167.882
rfingers 7.12502
rthumb -18.4606 -41.2619
lclavicle -4.98289e-014 -6.36111e-015
lhumerus -31.7116 -19.6241 96.1253
lradius 74.5829
lwrist 53.7137
lhand -19.3623 44.5275
lfingers 7.12502
lthumb 6.9554 434.393
rfemur -14.5782 -3.41695 24.1479
rtibia 17.4489
rfoot -13.9231 -22.1978
rtoes 18.724
lfemur -18.3203 -1.95045 -20.1429
ltibia 36.3569
lfoot -16.1655 6.05103
ltoes -8.54368
1378
root -0.749756 17.5092 4.08727 -349.969 107.426 -358.909
lowerback -6.70067 5.27435 5.21551
upperback -2.97722 6.83374 -2.53284
thorax 1.56202 3.43432 -4.9434
lowerneck -5.47652 -11.4794 -2.47388
upperneck 9.71753 -15.4617 2.97702
head 4.68633 -7.53331 0.484901
rclavicle -5.25622e-014 2.06736e-014
rhumerus 64.8097 -17.6172 -94.5197
rradius 50.7854
rwrist -16.6148
rhand 134.714 168.207
rfingers 7.12502
rthumb -18.0587 -40.9742
lclavicle -5.25622e-014 2.06736e-014
lhumerus -32.0935 -20.1513 96.8631
lradius 74.7921
lwrist 53.7772
lhand -19.3955 44.9518
lfingers 7.12502
lthumb 6.92338 434.819
rfemur -15.5934 -3.38843 23.509
rtibia 18.8601
rfoot -14.3017 -22.8726
rtoes 18.1873
lfemur -17.4836 -2.12613 -20.6668
ltibia 34.2061
lfoot -17.1441 6.05726
ltoes -9.77298
1379
root -0.830101 17.5149 4.05069 -351.384 108.293 -360.328
lowerback -6.48833 5.12828 5.04307
upperback -2.95751 6.66059 -2.58622
thorax 1.43098 3.34542 -4.94071
lowerneck -5.55117 -11.6771 -2.60001
upperneck 9.85409 -15.7185 2.96541
head 4.77124 -7.6602 0.471594
rclavicle 1.38404e-014 2.66371e-014
rhumerus 65.2081 -17.2335 -94.7612
rradius 49.5915
rwrist -14.5292
rhand 135.325 169.269
rfingers 7.12502
rthumb -17.4708 -39.9659
lclavicle 1.38404e-014 2.66371e-014
lhumerus -32.3981 -20.5227 97.5973
lradius 74.9898
lwrist 53.9455
lhand -19.4055 45.4004
lfingers 7.12502
lthumb 6.9137 435.268
rfemur -16.5886 -3.66659 22.7521
rtibia 20.497
rfoot -14.9236 -23.3137
rtoes 18.0565
lfemur -16.6147 -2.39916 -21.2772
ltibia 32.1748
lfoot -17.7132 5.81815
ltoes -11.3182
